<svg width="60" height="60" viewBox="0 0 60 60" fill="none" xmlns="http://www.w3.org/2000/svg">
<rect width="60" height="60" rx="13.28" fill="url(#paint0_linear_1867_2769)"/>
<path fill-rule="evenodd" clip-rule="evenodd" d="M29.9844 10.7812C24.0781 10.7812 19.3594 15.0625 19.3594 20.5938C19.3594 23.2665 20.1477 25.0781 21.0674 27.1914C22.1909 29.7729 23.5102 32.8046 23.8281 38.4062C23.8594 39.1406 24.3281 39.5938 25.0938 39.5938H34.8906C35.6562 39.5938 36.125 39.1406 36.1562 38.4062C36.474 32.8078 37.792 29.781 38.915 27.2022C39.8355 25.0883 40.625 23.2754 40.625 20.5938C40.625 15.0625 35.9062 10.7812 29.9844 10.7812ZM23.9688 42.2188C23.9688 42.7656 24.4062 43.2188 24.9688 43.2188H35.0156C35.5625 43.2188 36.0156 42.7656 36.0156 42.2188C36.0156 41.6562 35.5625 41.2188 35.0156 41.2188H24.9688C24.4062 41.2188 23.9688 41.6562 23.9688 42.2188ZM25.3594 44.8438C25.4844 46.6562 27.5 47.8594 29.9844 47.8594C32.4688 47.8594 34.4531 46.6562 34.6094 44.8438H25.3594ZM26 25.25C25.5858 25.25 25.25 25.5858 25.25 26C25.25 26.4142 25.5858 26.75 26 26.75H29.25V38C29.25 38.4142 29.5858 38.75 30 38.75C30.4142 38.75 30.75 38.4142 30.75 38V26.75H34C34.4142 26.75 34.75 26.4142 34.75 26C34.75 25.5858 34.4142 25.25 34 25.25H30H26Z" fill="white"/>
<path fill-rule="evenodd" clip-rule="evenodd" d="M29.9844 10.7812C24.0781 10.7812 19.3594 15.0625 19.3594 20.5938C19.3594 23.2665 20.1477 25.0781 21.0674 27.1914C22.1909 29.7729 23.5102 32.8046 23.8281 38.4062C23.8594 39.1406 24.3281 39.5938 25.0938 39.5938H34.8906C35.6562 39.5938 36.125 39.1406 36.1562 38.4062C36.474 32.8078 37.792 29.781 38.915 27.2022C39.8355 25.0883 40.625 23.2754 40.625 20.5938C40.625 15.0625 35.9062 10.7812 29.9844 10.7812ZM23.9688 42.2188C23.9688 42.7656 24.4062 43.2188 24.9688 43.2188H35.0156C35.5625 43.2188 36.0156 42.7656 36.0156 42.2188C36.0156 41.6562 35.5625 41.2188 35.0156 41.2188H24.9688C24.4062 41.2188 23.9688 41.6562 23.9688 42.2188ZM25.3594 44.8438C25.4844 46.6562 27.5 47.8594 29.9844 47.8594C32.4688 47.8594 34.4531 46.6562 34.6094 44.8438H25.3594ZM26 25.25C25.5858 25.25 25.25 25.5858 25.25 26C25.25 26.4142 25.5858 26.75 26 26.75H29.25V38C29.25 38.4142 29.5858 38.75 30 38.75C30.4142 38.75 30.75 38.4142 30.75 38V26.75H34C34.4142 26.75 34.75 26.4142 34.75 26C34.75 25.5858 34.4142 25.25 34 25.25H30H26Z" fill="url(#paint1_linear_1867_2769)"/>
<defs>
<linearGradient id="paint0_linear_1867_2769" x1="30" y1="0" x2="30" y2="60" gradientUnits="userSpaceOnUse">
<stop stop-color="#313131"/>
<stop offset="1" stop-color="#141514"/>
</linearGradient>
<linearGradient id="paint1_linear_1867_2769" x1="30" y1="11" x2="30" y2="49" gradientUnits="userSpaceOnUse">
<stop stop-color="#FFA800"/>
<stop offset="1" stop-color="#FFCB00"/>
</linearGradient>
</defs>
</svg>
