<svg width="60" height="60" viewBox="0 0 60 60" fill="none" xmlns="http://www.w3.org/2000/svg">
<rect width="60" height="60" rx="13.28" fill="url(#paint0_linear_2267_9934)"/>
<path fill-rule="evenodd" clip-rule="evenodd" d="M30.5 8.93699C31.3626 8.71497 32 7.93192 32 7C32 5.89543 31.1046 5 30 5C28.8954 5 28 5.89543 28 7C28 7.93192 28.6374 8.71497 29.5 8.93699V50.063C28.6374 50.285 28 51.0681 28 52C28 53.1046 28.8954 54 30 54C31.1046 54 32 53.1046 32 52C32 51.0681 31.3626 50.285 30.5 50.063V8.93699Z" fill="#1BADF8"/>
<path d="M31.5 23.5001C31.5 23.2239 31.7239 23.0001 32 23.0001C32.2761 23.0001 32.5 23.2239 32.5 23.5001V37.0001C32.5 37.2762 32.2761 37.5001 32 37.5001C31.7239 37.5001 31.5 37.2762 31.5 37.0001V23.5001Z" fill="white"/>
<path d="M33 27.7595C33 27.4834 33.2239 27.2595 33.5 27.2595C33.7761 27.2595 34 27.4834 34 27.7595V32.7595C34 33.0357 33.7761 33.2595 33.5 33.2595C33.2239 33.2595 33 33.0357 33 32.7595V27.7595Z" fill="white"/>
<path d="M34.5 27.2595C34.5 26.9834 34.7239 26.7595 35 26.7595C35.2761 26.7595 35.5 26.9834 35.5 27.2595V33.2595C35.5 33.5357 35.2761 33.7595 35 33.7595C34.7239 33.7595 34.5 33.5357 34.5 33.2595V27.2595Z" fill="white"/>
<path d="M36 26.7595C36 26.4834 36.2239 26.2595 36.5 26.2595C36.7761 26.2595 37 26.4834 37 26.7595V33.7595C37 34.0357 36.7761 34.2595 36.5 34.2595C36.2239 34.2595 36 34.0357 36 33.7595V26.7595Z" fill="white"/>
<path d="M37.5 28.2595C37.5 27.9834 37.7239 27.7595 38 27.7595C38.2761 27.7595 38.5 27.9834 38.5 28.2595V32.2595C38.5 32.5357 38.2761 32.7595 38 32.7595C37.7239 32.7595 37.5 32.5357 37.5 32.2595V28.2595Z" fill="white"/>
<path d="M39 29.2595C39 28.9834 39.2239 28.7595 39.5 28.7595C39.7761 28.7595 40 28.9834 40 29.2595V31.2595C40 31.5357 39.7761 31.7595 39.5 31.7595C39.2239 31.7595 39 31.5357 39 31.2595V29.2595Z" fill="white"/>
<path d="M40.5 28.7595C40.5 28.4834 40.7239 28.2595 41 28.2595C41.2761 28.2595 41.5 28.4834 41.5 28.7595V31.7595C41.5 32.0357 41.2761 32.2595 41 32.2595C40.7239 32.2595 40.5 32.0357 40.5 31.7595V28.7595Z" fill="white"/>
<path d="M42 29.2595C42 28.9834 42.2239 28.7595 42.5 28.7595C42.7761 28.7595 43 28.9834 43 29.2595V31.2595C43 31.5357 42.7761 31.7595 42.5 31.7595C42.2239 31.7595 42 31.5357 42 31.2595V29.2595Z" fill="white"/>
<path d="M43.5 29.7595C43.5 29.4834 43.7239 29.2595 44 29.2595C44.2761 29.2595 44.5 29.4834 44.5 29.7595V30.7595C44.5 31.0357 44.2761 31.2595 44 31.2595C43.7239 31.2595 43.5 31.0357 43.5 30.7595V29.7595Z" fill="white"/>
<path d="M45 29.557C45 29.2808 45.2239 29.057 45.5 29.057C45.7761 29.057 46 29.2808 46 29.557V31.057C46 31.3331 45.7761 31.557 45.5 31.557C45.2239 31.557 45 31.3331 45 31.057V29.557Z" fill="white"/>
<path d="M46.5 29.7595C46.5 29.4834 46.7239 29.2595 47 29.2595C47.2761 29.2595 47.5 29.4834 47.5 29.7595V30.7595C47.5 31.0357 47.2761 31.2595 47 31.2595C46.7239 31.2595 46.5 31.0357 46.5 30.7595V29.7595Z" fill="white"/>
<path d="M48 29.2595C48 28.9834 48.2239 28.7595 48.5 28.7595C48.7761 28.7595 49 28.9834 49 29.2595V31.2595C49 31.5357 48.7761 31.7595 48.5 31.7595C48.2239 31.7595 48 31.5357 48 31.2595V29.2595Z" fill="white"/>
<path d="M49.5 29.7595C49.5 29.4834 49.7239 29.2595 50 29.2595C50.2761 29.2595 50.5 29.4834 50.5 29.7595V30.7595C50.5 31.0357 50.2761 31.2595 50 31.2595C49.7239 31.2595 49.5 31.0357 49.5 30.7595V29.7595Z" fill="white"/>
<path d="M51 30.0601C51 29.7839 51.2239 29.5601 51.5 29.5601C51.7761 29.5601 52 29.7839 52 30.0601V30.5601C52 30.8362 51.7761 31.0601 51.5 31.0601C51.2239 31.0601 51 30.8362 51 30.5601V30.0601Z" fill="white"/>
<path d="M52.5 29.7595C52.5 29.4834 52.7239 29.2595 53 29.2595C53.2761 29.2595 53.5 29.4834 53.5 29.7595V30.7595C53.5 31.0357 53.2761 31.2595 53 31.2595C52.7239 31.2595 52.5 31.0357 52.5 30.7595V29.7595Z" fill="white"/>
<path d="M54 30.2595C54 29.9834 54.2239 29.7595 54.5 29.7595C54.7761 29.7595 55 29.9834 55 30.2595C55 30.5357 54.7761 30.7595 54.5 30.7595C54.2239 30.7595 54 30.5357 54 30.2595Z" fill="white"/>
<path d="M55.5 30.2595C55.5 29.9834 55.7239 29.7595 56 29.7595C56.2761 29.7595 56.5 29.9834 56.5 30.2595C56.5 30.5357 56.2761 30.7595 56 30.7595C55.7239 30.7595 55.5 30.5357 55.5 30.2595Z" fill="white"/>
<path d="M27.5 24C27.5 23.7239 27.7239 23.5 28 23.5C28.2761 23.5 28.5 23.7239 28.5 24V36C28.5 36.2761 28.2761 36.5 28 36.5C27.7239 36.5 27.5 36.2761 27.5 36V24Z" fill="#FF3B30"/>
<rect x="26" y="27" width="1" height="7" rx="0.5" fill="#FF3B30"/>
<path d="M24.5 24.5C24.5 24.2239 24.7239 24 25 24C25.2761 24 25.5 24.2239 25.5 24.5V35.5C25.5 35.7761 25.2761 36 25 36C24.7239 36 24.5 35.7761 24.5 35.5V24.5Z" fill="#FF3B30"/>
<path d="M23 20.5C23 20.2239 23.2239 20 23.5 20C23.7761 20 24 20.2239 24 20.5V39.5C24 39.7761 23.7761 40 23.5 40C23.2239 40 23 39.7761 23 39.5V20.5Z" fill="#FF3B30"/>
<path d="M21.5001 14.5C21.5001 14.2239 21.7239 14 22.0001 14C22.2762 14 22.5001 14.2239 22.5001 14.5V45.5C22.5001 45.7761 22.2762 46 22.0001 46C21.7239 46 21.5001 45.7761 21.5001 45.5V14.5Z" fill="#FF3B30"/>
<path d="M20 15.5C20 15.2239 20.2239 15 20.5 15C20.7761 15 21 15.2239 21 15.5V44.5C21 44.7761 20.7761 45 20.5 45C20.2239 45 20 44.7761 20 44.5V15.5Z" fill="#FF3B30"/>
<path d="M18.4999 10.5C18.4999 10.2239 18.7238 10 18.9999 10C19.2761 10 19.4999 10.2239 19.4999 10.5V49.5C19.4999 49.7761 19.2761 50 18.9999 50C18.7238 50 18.4999 49.7761 18.4999 49.5V10.5Z" fill="#FF3B30"/>
<path d="M17.0001 20.5C17.0001 20.2239 17.224 20 17.5001 20C17.7762 20 18.0001 20.2239 18.0001 20.5V39.5C18.0001 39.7761 17.7762 40 17.5001 40C17.224 40 17.0001 39.7761 17.0001 39.5V20.5Z" fill="#FF3B30"/>
<path d="M15.5 19.5C15.5 19.2239 15.7239 19 16 19C16.2761 19 16.5 19.2239 16.5 19.5V40.5C16.5 40.7761 16.2761 41 16 41C15.7239 41 15.5 40.7761 15.5 40.5V19.5Z" fill="#FF3B30"/>
<path d="M14 24.5C14 24.2239 14.2239 24 14.5 24C14.7761 24 15 24.2239 15 24.5V35.5C15 35.7761 14.7761 36 14.5 36C14.2239 36 14 35.7761 14 35.5V24.5Z" fill="#FF3B30"/>
<path d="M12.5 22.5C12.5 22.2239 12.7239 22 13 22C13.2761 22 13.5 22.2239 13.5 22.5V37.5C13.5 37.7761 13.2761 38 13 38C12.7239 38 12.5 37.7761 12.5 37.5V22.5Z" fill="#FF3B30"/>
<path d="M11 27.5C11 27.2239 11.2239 27 11.5 27C11.7761 27 12 27.2239 12 27.5V33.5C12 33.7761 11.7761 34 11.5 34C11.2239 34 11 33.7761 11 33.5V27.5Z" fill="#FF3B30"/>
<path d="M8 30C8 29.7239 8.22386 29.5 8.5 29.5C8.77614 29.5 9 29.7239 9 30C9 30.2761 8.77614 30.5 8.5 30.5C8.22386 30.5 8 30.2761 8 30Z" fill="#FF3B30"/>
<path d="M6.5 29.5C6.5 29.2239 6.72386 29 7 29C7.27614 29 7.5 29.2239 7.5 29.5V30.5C7.5 30.7761 7.27614 31 7 31C6.72386 31 6.5 30.7761 6.5 30.5V29.5Z" fill="#FF3B30"/>
<path d="M5 29.5C5 29.2239 5.22386 29 5.5 29C5.77614 29 6 29.2239 6 29.5V30.5C6 30.7761 5.77614 31 5.5 31C5.22386 31 5 30.7761 5 30.5V29.5Z" fill="#FF3B30"/>
<path d="M2 30C2 29.7239 2.22386 29.5 2.5 29.5C2.77614 29.5 3 29.7239 3 30C3 30.2761 2.77614 30.5 2.5 30.5C2.22386 30.5 2 30.2761 2 30Z" fill="#FF3B30"/>
<path d="M9.5 29C9.5 28.7239 9.72386 28.5 10 28.5C10.2761 28.5 10.5 28.7239 10.5 29V31C10.5 31.2761 10.2761 31.5 10 31.5C9.72386 31.5 9.5 31.2761 9.5 31V29Z" fill="#FF3B30"/>
<path d="M3.5 29.5C3.5 29.2239 3.72386 29 4 29C4.27614 29 4.5 29.2239 4.5 29.5V30.5C4.5 30.7761 4.27614 31 4 31C3.72386 31 3.5 30.7761 3.5 30.5V29.5Z" fill="#FF3B30"/>
<defs>
<linearGradient id="paint0_linear_2267_9934" x1="30" y1="0" x2="30" y2="60" gradientUnits="userSpaceOnUse">
<stop stop-color="#313131"/>
<stop offset="1" stop-color="#141514"/>
</linearGradient>
</defs>
</svg>
